<?xml version="1.0" standalone="no"?>
<!DOCTYPE svg PUBLIC "-//W3C//DTD SVG 20010904//EN"
 "http://www.w3.org/TR/2001/REC-SVG-20010904/DTD/svg10.dtd">
<svg version="1.0" xmlns="http://www.w3.org/2000/svg"
 width="200.000000pt" height="200.000000pt" viewBox="0 0 200.000000 200.000000"
 preserveAspectRatio="xMidYMid meet">
<metadata>
Created by potrace 1.11, written by Peter Selinger 2001-2013
</metadata>
<g transform="translate(0.000000,200.000000) scale(0.100000,-0.100000)"
fill="#000000" stroke="none">
<path d="M276 1869 c-44 -12 -86 -43 -114 -84 l-27 -40 -3 -636 c-3 -699 -5
-675 59 -737 18 -17 48 -37 67 -43 24 -8 151 -12 388 -13 l353 -1 4 25 c11 56
19 55 -367 55 l-355 0 -26 25 c-15 14 -31 33 -37 43 -6 12 -10 247 -10 638 0
583 1 620 19 643 40 53 15 51 648 52 626 1 617 2 660 -46 19 -21 20 -38 22
-274 1 -138 2 -258 2 -266 1 -11 12 -15 40 -15 l39 0 -2 265 c-2 216 -5 272
-18 300 -16 39 -66 85 -107 103 -29 11 -1192 17 -1235 6z"/>
<path d="M350 1494 l0 -44 304 0 c335 0 317 -4 308 61 l-4 27 -304 0 -304 -1
0 -43z"/>
<path d="M350 1194 l0 -44 205 0 205 0 0 43 0 44 -205 0 -205 0 0 -43z"/>
<path d="M1206 1225 c-9 -9 -16 -21 -16 -26 0 -5 25 -47 56 -93 31 -47 53 -89
50 -94 -10 -17 -192 -162 -203 -162 -5 0 -40 34 -77 75 -105 117 -135 99 -141
-84 -4 -105 11 -155 60 -197 61 -54 192 -81 295 -61 33 6 37 4 69 -39 114
-151 286 -361 304 -371 12 -7 34 -12 49 -13 31 0 141 72 171 112 40 54 31 74
-141 300 l-159 210 19 39 c27 57 50 155 45 192 -14 97 -94 174 -212 206 -80
21 -151 23 -169 6z m210 -111 c36 -17 56 -35 73 -64 28 -51 23 -98 -25 -199
-18 -40 -34 -74 -34 -76 0 -1 74 -101 165 -220 91 -120 165 -224 165 -230 0
-7 -25 -30 -55 -50 -41 -28 -58 -35 -67 -27 -7 6 -85 103 -173 216 -88 113
-168 208 -178 211 -10 4 -31 2 -45 -4 -87 -35 -253 -1 -277 57 -4 9 -9 46 -11
81 l-4 64 59 -56 c39 -38 68 -57 84 -57 20 0 64 25 87 50 3 3 41 34 85 69 94
75 125 109 125 136 0 11 -16 44 -35 72 -19 29 -35 55 -35 58 0 9 38 -3 96 -31z"/>
<path d="M350 896 l0 -45 205 0 205 0 0 44 0 45 -205 0 -205 0 0 -44z"/>
</g>
</svg>
